<svg width="139" height="126" viewBox="0 0 139 126" version="1.1" xmlns="http://www.w3.org/2000/svg" xmlns:xlink="http://www.w3.org/1999/xlink">

    <g id="Canvas" transform="translate(-577 199)">
        <g id="M">
            <use xlink:href="#path0_fill" transform="translate(577.8 -199)" fill="#FFFFFF"/>
        </g>
    </g>
    <defs>
        <path id="path0_fill" d="M 10 0L 37.6 0L 59.8 68C 61.6667 73.7333 63.2667 78.9333 64.6 83.6C 66.0667 88.1333 67.5333 93.2667 69 99L 69.6 99C 71.0667 94.2 72.5333 89.0667 74 83.6C 75.6 78.1333 77.1333 72.9333 78.6 68L 100 0L 127.6 0L 138 126L 117.2 126C 116.133 112.667 115.067 99.2667 114 85.8C 113.067 72.2 112.333 58.6 111.8 45L 111 22L 110.6 22C 108.333 30.2667 105.933 38.6667 103.4 47.2C 101 55.7333 98.4667 63.9333 95.8 71.8L 78 126L 59.8 126L 41.8 71.6C 39.9333 65.8667 38.2667 60.6667 36.8 56C 35.4667 51.3333 34.2 47.0667 33 43.2C 31.9333 39.2 30.9333 35.4667 30 32C 29.0667 28.5333 28.2 25.2 27.4 22L 26.8 22C 26.4 33.3333 25.8 44.8667 25 56.6C 24.2 68.3333 23.4667 79.6 22.8 90.4L 20.4 126L 0 126L 10 0Z"/>
    </defs>
</svg>
