<?xml version="1.0" encoding="UTF-8"?>
<svg width="486px" height="365px" viewBox="0 0 486 365" version="1.1" xmlns="http://www.w3.org/2000/svg" xmlns:xlink="http://www.w3.org/1999/xlink">
    <!-- Generator: Sketch 52.5 (67469) - http://www.bohemiancoding.com/sketch -->
    <title>contact-mail</title>
    <desc>Created with Sketch.</desc>
    <g id="Page-1" stroke="none" stroke-width="1" fill="none" fill-rule="evenodd">
        <g id="contact-mail" fill="#FFFFFF" fill-rule="nonzero">
            <path d="M485.211,303.906 C485.211,314.543 482.219,324.404 477.426,333.08 L324.225,161.67 L475.765,29.086 C481.66,38.441 485.211,49.43 485.211,61.305 L485.211,303.906 Z M242.606,192.793 L453.469,8.293 C444.816,3.556 435.072,0.651 424.561,0.651 L60.651,0.651 C50.127,0.651 40.38,3.556 31.762,8.293 L242.606,192.793 Z M301.393,181.631 L252.584,224.365 C249.729,226.852 246.174,228.094 242.606,228.094 C239.036,228.094 235.481,226.852 232.626,224.365 L183.806,181.629 L28.667,355.23 C37.966,361.064 48.864,364.559 60.65,364.559 L424.561,364.559 C436.345,364.559 447.248,361.064 456.544,355.23 L301.393,181.631 Z M9.448,29.085 C3.554,38.44 0,49.429 0,61.305 L0,303.907 C0,314.544 2.978,324.405 7.789,333.081 L160.972,161.641 L9.448,29.085 Z" id="Shape"></path>
        </g>
    </g>
</svg>