<svg  viewBox="0 0 48 143" version="1.1" xmlns="http://www.w3.org/2000/svg" xmlns:xlink="http://www.w3.org/1999/xlink">

    <g id="Canvas" transform="translate(-666 162)">
        <g id="Vector">
            <use xlink:href="#path0_fill" transform="translate(666 -162)" fill="#FFFFFF"/>
        </g>
    </g>
    <defs>
        <path id="path0_fill" d="M 39.33 133.86C 34.73 139.38 28.98 142.14 22.08 142.14C 15.18 142.14 9.7367 140.377 5.75 136.85C 1.9167 133.323 9.15527e-07 128.723 9.15527e-07 123.05C 9.15527e-07 121.057 1.2267 112.7 3.68 97.98L 11.27 56.81L 1.61 56.81L 2.07 52.67L 11.96 52.67C 23.3067 52.67 31.6633 52.21 37.03 51.29L 40.25 50.6L 24.38 137.54C 28.98 137.08 32.8133 134.933 35.88 131.1L 39.33 133.86ZM 19.09 28.52C 15.87 25.3 14.26 21.39 14.26 16.79C 14.26 12.19 15.87 8.28 19.09 5.06C 22.31 1.6867 26.22 3.05176e-07 30.82 3.05176e-07C 35.42 3.05176e-07 39.33 1.6867 42.55 5.06C 45.9233 8.28 47.61 12.19 47.61 16.79C 47.61 21.39 45.9233 25.3 42.55 28.52C 39.33 31.74 35.42 33.35 30.82 33.35C 26.22 33.35 22.31 31.74 19.09 28.52Z"/>
    </defs>
</svg>
