<svg xmlns="http://www.w3.org/2000/svg" xmlns:xlink="http://www.w3.org/1999/xlink" viewBox="0 0 354 462.5"><defs><style>.cls-1,.cls-10,.cls-3,.cls-4,.cls-5,.cls-6,.cls-8,.cls-9{fill:none;}.cls-2{clip-path:url(#clip-path);}.cls-3{stroke:#4d4d4d;}.cls-3,.cls-4,.cls-5,.cls-6{stroke-linecap:round;stroke-linejoin:round;}.cls-3,.cls-4{stroke-width:6px;}.cls-10,.cls-4,.cls-5,.cls-6,.cls-8,.cls-9{stroke:#fff;}.cls-5{stroke-width:2px;}.cls-7{fill:#fff;}.cls-10,.cls-8,.cls-9{stroke-miterlimit:10;}.cls-8{stroke-width:5px;}.cls-9{stroke-width:12px;}.cls-10{stroke-width:11px;}</style><clipPath id="clip-path"><rect class="cls-1" x="32.5" y="112.5" width="290" height="290" rx="145" ry="145" transform="translate(234.07 -50.09) rotate(45)"/></clipPath></defs><title>Asset 1</title><g id="Layer_2" data-name="Layer 2"><g id="Layer_1-2" data-name="Layer 1"><g class="cls-2"><path class="cls-3" d="M195.5,147.5"/><path class="cls-3" d="M235.5,157.5"/><path class="cls-3" d="M235.5,157.5"/><line class="cls-4" x1="67.5" y1="357.5" x2="67.5" y2="269.5"/><line class="cls-4" x1="85.5" y1="269.5" x2="85.5" y2="375.5"/><path class="cls-4" d="M17.5,319.5"/><path class="cls-4" d="M67.5,269.5"/><path class="cls-4" d="M106.5,301.83c-12.78-14.4-21-32.33-21-32.33h-18s-22,48-50,50v10"/><path class="cls-4" d="M17.5,329.5h0Z"/><line class="cls-5" x1="98.73" y1="292" x2="98.73" y2="329.5"/><line class="cls-5" x1="54.26" y1="292" x2="54.26" y2="329.5"/><line class="cls-5" x1="48.26" y1="299" x2="48.26" y2="329.5"/><line class="cls-5" x1="42.26" y1="305" x2="42.26" y2="329.5"/><line class="cls-5" x1="36.26" y1="310" x2="36.26" y2="329.5"/><line class="cls-5" x1="30.26" y1="315" x2="30.26" y2="329.5"/><line class="cls-5" x1="59.68" y1="285.39" x2="59.68" y2="327.5"/><line class="cls-5" x1="93.68" y1="286.39" x2="93.68" y2="328.5"/><line class="cls-5" x1="67" y1="284" x2="85" y2="284"/><line class="cls-5" x1="67" y1="298.5" x2="85" y2="298.5"/><line class="cls-5" x1="67" y1="313" x2="85" y2="313"/><line class="cls-5" x1="67.5" y1="269.5" x2="67.5" y2="264.5"/><line class="cls-5" x1="85.5" y1="269.5" x2="85.5" y2="264.5"/><polygon class="cls-1" points="109.5 422.5 108.5 204.83 174.5 267.5 175.5 454.5 109.5 422.5"/><polyline class="cls-4" points="177.5 454.5 177.5 267.5 248.5 199.5"/><polyline class="cls-4" points="106.5 406.5 106.5 197.5 177.5 125.5 248.5 199.5 248.5 276.5"/><line class="cls-4" x1="177.5" y1="267.5" x2="106.5" y2="199.5"/><line class="cls-5" x1="238.5" y1="222.5" x2="236.5" y2="222.5"/><line class="cls-5" x1="238.5" y1="230" x2="231.5" y2="230"/><line class="cls-5" x1="238.5" y1="237.5" x2="223.5" y2="237.5"/><line class="cls-5" x1="238.5" y1="245.5" x2="215.5" y2="245.5"/><line class="cls-5" x1="238.5" y1="253.5" x2="207.5" y2="253.5"/><line class="cls-5" x1="238.5" y1="261.5" x2="199.5" y2="261.5"/><line class="cls-5" x1="238.5" y1="269.5" x2="189.5" y2="269.5"/><line class="cls-5" x1="238.5" y1="277.5" x2="188.5" y2="277.5"/><line class="cls-5" x1="235.5" y1="285.5" x2="188.5" y2="285.5"/><line class="cls-5" x1="229.5" y1="293.5" x2="188.5" y2="293.5"/><line class="cls-5" x1="229.5" y1="301.5" x2="188.5" y2="301.5"/><line class="cls-5" x1="229.5" y1="309.5" x2="188.5" y2="309.5"/><line class="cls-5" x1="229.5" y1="317.5" x2="188.5" y2="317.5"/><line class="cls-5" x1="229.5" y1="325.5" x2="188.5" y2="325.5"/><line class="cls-5" x1="229.5" y1="333.5" x2="188.5" y2="333.5"/><line class="cls-5" x1="229.5" y1="341.5" x2="188.5" y2="341.5"/><line class="cls-5" x1="229.5" y1="349.5" x2="188.5" y2="349.5"/><line class="cls-5" x1="229.5" y1="357.5" x2="188.5" y2="357.5"/><line class="cls-5" x1="229.5" y1="365.5" x2="188.5" y2="365.5"/><line class="cls-5" x1="229.5" y1="373.5" x2="188.5" y2="373.5"/><line class="cls-5" x1="229.5" y1="381.5" x2="188.5" y2="381.5"/><line class="cls-5" x1="238.5" y1="389.5" x2="188.5" y2="389.5"/><line class="cls-5" x1="238.5" y1="397.5" x2="188.5" y2="397.5"/><line class="cls-5" x1="238.5" y1="405.5" x2="188.5" y2="405.5"/><line class="cls-5" x1="238.5" y1="413.5" x2="188.5" y2="413.5"/><line class="cls-5" x1="238.5" y1="421.5" x2="188.5" y2="421.5"/><line class="cls-5" x1="238.5" y1="429.5" x2="188.5" y2="429.5"/><line class="cls-5" x1="238.5" y1="437.5" x2="188.5" y2="437.5"/><line class="cls-5" x1="238.5" y1="445.5" x2="188.5" y2="445.5"/><line class="cls-5" x1="238.5" y1="453.5" x2="188.5" y2="453.5"/><line class="cls-5" x1="238.5" y1="461.5" x2="188.5" y2="461.5"/><polygon class="cls-1" points="241.5 405.5 229.5 417.5 229.5 291.5 241.5 279.5 241.5 405.5"/><polygon class="cls-4" points="242 278 229.5 290.5 229.5 314 242 301.5 322.5 301.5 322.5 278 242 278"/><polygon class="cls-4" points="242 330 229.5 342.5 229.5 366 242 353.5 322.5 353.5 322.5 330 242 330"/><polygon class="cls-4" points="242 382 229.5 394.5 229.5 418 242 405.5 322.5 405.5 322.5 382 242 382"/><line class="cls-4" x1="241.5" y1="405.5" x2="241.5" y2="279.5"/><line class="cls-4" x1="229.5" y1="416.5" x2="229.5" y2="290.5"/><rect class="cls-5" x="286" y="254" width="22" height="15" rx="3" ry="3" transform="translate(161.31 -110.23) rotate(28.58)"/><line class="cls-6" x1="294.64" y1="264.77" x2="301.67" y2="268.6"/><line class="cls-6" x1="299.19" y1="262.7" x2="303.58" y2="265.09"/><line class="cls-6" x1="303.74" y1="260.62" x2="305.5" y2="261.58"/><line class="cls-5" x1="294" y1="269" x2="294" y2="276"/><line class="cls-5" x1="307" y1="266.5" x2="307" y2="276"/><path class="cls-7" d="M197.92,174.49a30.75,30.75,0,1,0-30,52.08h0L285,260l5-8ZM186.7,210q-.35-4.53-.64-9t-.37-9l-.13-4.36h-.13q-.66,2.6-1.41,5.32t-1.5,5L178.65,210H174.3l-4-12.14q-1-3.08-1.69-5.65t-1.17-4.64h-.09q-.09,3.43-.29,7.17t-.42,6.91L166.2,210h-5.06l2.11-27.72h6.82l4.4,13.82q.57,1.8,1.08,3.59t.9,3.5h.18q.18-.75.42-1.65t.51-1.85q.27-.95.51-1.87c.16-.62.33-1.19.51-1.72l4.27-13.82h6.82l2.2,27.72Z"/><line class="cls-5" x1="116.5" y1="222.5" x2="118.5" y2="222.5"/><line class="cls-5" x1="116.5" y1="230" x2="123.5" y2="230"/><line class="cls-5" x1="116.5" y1="237.5" x2="131.5" y2="237.5"/><line class="cls-5" x1="116.5" y1="245.5" x2="139.5" y2="245.5"/><line class="cls-5" x1="116.5" y1="253.5" x2="147.5" y2="253.5"/><line class="cls-5" x1="116.5" y1="261.5" x2="155.5" y2="261.5"/><line class="cls-5" x1="116.5" y1="269.5" x2="165.5" y2="269.5"/><line class="cls-5" x1="132.5" y1="185.5" x2="132.5" y2="209.5"/><line class="cls-5" x1="117.5" y1="197.5" x2="117.5" y2="199.5"/><line class="cls-5" x1="140" y1="176.5" x2="140" y2="216.5"/><line class="cls-5" x1="125" y1="193.5" x2="125" y2="203.5"/><line class="cls-5" x1="147.5" y1="218.5" x2="147.5" y2="223.5"/><line class="cls-5" x1="155" y1="225.5" x2="155" y2="230.5"/><line class="cls-5" x1="162.5" y1="230.5" x2="162.5" y2="238.5"/><line class="cls-5" x1="170" y1="233.5" x2="170" y2="246.5"/><line class="cls-5" x1="147.5" y1="175.5" x2="147.5" y2="170.5"/><line class="cls-5" x1="155" y1="168.5" x2="155" y2="163.5"/><line class="cls-5" x1="162.5" y1="163.5" x2="162.5" y2="155.5"/><line class="cls-5" x1="170" y1="160.5" x2="170" y2="147.5"/><line class="cls-5" x1="223" y1="185.5" x2="223" y2="209.5"/><line class="cls-5" x1="238" y1="198.5" x2="238" y2="200.5"/><line class="cls-5" x1="215.5" y1="176.5" x2="215.5" y2="216.5"/><line class="cls-5" x1="230.5" y1="193.5" x2="230.5" y2="203.5"/><line class="cls-5" x1="207" y1="218.5" x2="207" y2="223.5"/><line class="cls-5" x1="199.5" y1="225.5" x2="199.5" y2="230.5"/><line class="cls-5" x1="193" y1="230.5" x2="193" y2="238.5"/><line class="cls-5" x1="185.5" y1="233.5" x2="185.5" y2="246.5"/><line class="cls-5" x1="208" y1="175.5" x2="208" y2="170.5"/><line class="cls-5" x1="200.5" y1="168.5" x2="200.5" y2="163.5"/><line class="cls-5" x1="193" y1="163.5" x2="193" y2="155.5"/><line class="cls-5" x1="185.5" y1="160.5" x2="185.5" y2="147.5"/><line class="cls-5" x1="177.5" y1="235.5" x2="177.5" y2="254.5"/><line class="cls-5" x1="116.5" y1="277.5" x2="166.5" y2="277.5"/><line class="cls-5" x1="116.5" y1="285.5" x2="166.5" y2="285.5"/><line class="cls-5" x1="116.5" y1="293.5" x2="166.5" y2="293.5"/><line class="cls-5" x1="116.5" y1="301.5" x2="166.5" y2="301.5"/><line class="cls-5" x1="116.5" y1="309.5" x2="166.5" y2="309.5"/><line class="cls-5" x1="116.5" y1="317.5" x2="166.5" y2="317.5"/><line class="cls-5" x1="116.5" y1="325.5" x2="166.5" y2="325.5"/><line class="cls-5" x1="116.5" y1="333.5" x2="166.5" y2="333.5"/><line class="cls-5" x1="116.5" y1="341.5" x2="166.5" y2="341.5"/><line class="cls-5" x1="116.5" y1="349.5" x2="166.5" y2="349.5"/><line class="cls-5" x1="116.5" y1="357.5" x2="166.5" y2="357.5"/><line class="cls-5" x1="116.5" y1="365.5" x2="166.5" y2="365.5"/><line class="cls-5" x1="116.5" y1="373.5" x2="166.5" y2="373.5"/><line class="cls-5" x1="116.5" y1="381.5" x2="166.5" y2="381.5"/><line class="cls-5" x1="116.5" y1="389.5" x2="166.5" y2="389.5"/><line class="cls-5" x1="116.5" y1="397.5" x2="166.5" y2="397.5"/><line class="cls-5" x1="116.5" y1="405.5" x2="166.5" y2="405.5"/><line class="cls-5" x1="116.5" y1="413.5" x2="166.5" y2="413.5"/><line class="cls-5" x1="116.5" y1="421.5" x2="166.5" y2="421.5"/><line class="cls-5" x1="116.5" y1="429.5" x2="166.5" y2="429.5"/><line class="cls-5" x1="116.5" y1="437.5" x2="166.5" y2="437.5"/><line class="cls-5" x1="116.5" y1="445.5" x2="166.5" y2="445.5"/><line class="cls-5" x1="116.5" y1="453.5" x2="166.5" y2="453.5"/><line class="cls-5" x1="116.5" y1="461.5" x2="166.5" y2="461.5"/><line class="cls-4" x1="322.5" y1="301.5" x2="322.5" y2="329.5"/></g><line class="cls-5" x1="177.5" y1="159.5" x2="177.5" y2="140.5"/><path class="cls-8" d="M178,405"/><path class="cls-9" d="M177,405c80.63,0,135.17-67.84,155-146,14.21-56,15.84-179.05,16-218,0-6.65-5.87-9.48-12-12C300,14,236.67,6,177.5,6h-1C112,6,54,14,18,29,11.87,31.56,6,34.4,6,41c.15,38.91,1.79,162,16,218,19.83,78.16,74.37,146,155,146"/><path class="cls-10" d="M9.5,107C45.5,92,115.83,80,175,80h3.5C237.67,80,308,92,344,107"/><path class="cls-7" d="M236.57,37.78l-2.68-.25-.63,6.93,2.13.2a6.24,6.24,0,0,0,3.36-.48,2.91,2.91,0,0,0,1.56-2.53,3.21,3.21,0,0,0-.78-2.68A4.59,4.59,0,0,0,236.57,37.78Z"/><path class="cls-7" d="M209.83,39.84q-.37-1.28-.75-2.8H209l-1.09,2.66q-.52,1.29-1.11,2.69l-1.3,3.11c2.44.11,3.65.17,6.09.31l-1-3.23Q210.2,41.12,209.83,39.84Z"/><path class="cls-7" d="M81.92,46.24A6.85,6.85,0,0,0,80.2,44,5.31,5.31,0,0,0,78,42.9a6.52,6.52,0,0,0-2.51-.06,6,6,0,0,0-2.34.89,5.37,5.37,0,0,0-1.69,1.77,7,7,0,0,0-.87,2.66,11.49,11.49,0,0,0,.12,3.51A11,11,0,0,0,71.77,55a7,7,0,0,0,1.73,2.18,5.45,5.45,0,0,0,2.19,1.1,6.17,6.17,0,0,0,2.45.08,6,6,0,0,0,2.28-.85,5.2,5.2,0,0,0,1.68-1.73,7.18,7.18,0,0,0,.9-2.61,13,13,0,0,0-1.08-6.94Z"/><path class="cls-7" d="M331,29.6V25.75H314.11C273.24,16.57,205.91,2.5,177,2.5S80.75,16.57,39.89,25.75H19v4.79c-7.83,1.83-12.5,3-12.5,3v71s127.58-29,170.5-29,170.5,29,170.5,29v-71S341.22,32,331,29.6ZM53.78,65.76q-1-3.38-1.91-6.76t-1.71-6.8l-.79-3.28-.11,0Q49.16,51,49,53.21t-.38,4c-.43,3.94-.64,5.91-1,9.84l-3.34.73c-2-3.4-3.05-5.1-5.12-8.49q-1.32-2.15-2.3-4T35.11,52l-.07,0q.53,2.61,1,5.46T37,62.82c.44,2.56.66,3.84,1.1,6.4l-3.87.92c-1.36-8.51-2-12.77-3.34-21.28l5.4-1.26c2.35,3.86,3.51,5.79,5.81,9.66q.75,1.27,1.44,2.53t1.28,2.49l.14,0q0-.59,0-1.32t.09-1.48q0-.76.09-1.5t.11-1.39c.43-4.47.65-6.71,1.12-11.19l5.42-1.12c2.4,8.28,3.59,12.42,5.94,20.71Zm33.53-12a10.08,10.08,0,0,1-1.72,3.75,9.88,9.88,0,0,1-3,2.65,11.88,11.88,0,0,1-4,1.41,12.25,12.25,0,0,1-4.27,0A9.29,9.29,0,0,1,70.61,60a9.93,9.93,0,0,1-2.77-3,13.12,13.12,0,0,1-1.64-4.54,12.42,12.42,0,0,1,0-4.76,9.93,9.93,0,0,1,1.66-3.84,9.78,9.78,0,0,1,3.07-2.74,12.93,12.93,0,0,1,8.6-1.42,9.37,9.37,0,0,1,3.72,1.6A9.78,9.78,0,0,1,86,44.41,12.89,12.89,0,0,1,87.45,49,12.54,12.54,0,0,1,87.31,53.74Zm25.78,2.84a16.8,16.8,0,0,1-3.55.73,12.64,12.64,0,0,1-4.41-.25,9.8,9.8,0,0,1-6.44-4.89,13.57,13.57,0,0,1-1.22-9.23,9.5,9.5,0,0,1,1.86-3.76,10.15,10.15,0,0,1,3.31-2.62,13.25,13.25,0,0,1,4.55-1.29,15,15,0,0,1,3.76,0,12.61,12.61,0,0,1,2.57.63c-.27,1.29-.41,1.93-.67,3.22a12.86,12.86,0,0,0-2.23-.59,9.39,9.39,0,0,0-2.57,0,9,9,0,0,0-2.75.74,5.79,5.79,0,0,0-2.13,1.62,6.67,6.67,0,0,0-1.25,2.59,9.85,9.85,0,0,0-.14,3.64,10.06,10.06,0,0,0,1,3.44,6.92,6.92,0,0,0,1.77,2.24,5.7,5.7,0,0,0,2.35,1.13,8.23,8.23,0,0,0,2.75.14,11.82,11.82,0,0,0,2.69-.56,8.8,8.8,0,0,0,1.92-1l1.21,3A11.47,11.47,0,0,1,113.1,56.57Zm25.69-2.15c-3-3.57-4.51-5.35-7.58-8.88l-1.66,2,.57,7.44-4.18.34c-.72-8.56-1.08-12.84-1.79-21.4l4.33-.35.71,9.25c3-3.95,4.46-5.91,7.52-9.82l5.4-.32c-3.26,3.95-4.86,5.93-8,9.92,4,4.56,6,6.86,9.89,11.48Zm27.61-4.61a6.06,6.06,0,0,1-1.55,2.06,7.41,7.41,0,0,1-2.5,1.4,11.31,11.31,0,0,1-3.37.57,18.52,18.52,0,0,1-3.62-.24,14.54,14.54,0,0,1-3.41-1l.84-3.21a16.76,16.76,0,0,0,2.94,1,11.77,11.77,0,0,0,3,.28,5.18,5.18,0,0,0,2.9-.8,2.36,2.36,0,0,0,1-2.1,2.49,2.49,0,0,0-.19-.92,2.24,2.24,0,0,0-.63-.82,4.93,4.93,0,0,0-1.2-.72,14.9,14.9,0,0,0-2-.68l-2-.59a10.8,10.8,0,0,1-3.94-2,4.94,4.94,0,0,1-1.61-3.74A5.66,5.66,0,0,1,153,33.6a8.9,8.9,0,0,1,5.91-1.94,16.32,16.32,0,0,1,3.62.26,13.38,13.38,0,0,1,3,.94l-.93,3.22a15.64,15.64,0,0,0-2.78-1,10.09,10.09,0,0,0-2.59-.27,4.76,4.76,0,0,0-2.79.8,2.26,2.26,0,0,0-.94,2,2.16,2.16,0,0,0,.89,1.79A9.19,9.19,0,0,0,159,40.56l2.16.62a9.34,9.34,0,0,1,4.21,2.36,5.31,5.31,0,0,1,1.49,3.69A5.88,5.88,0,0,1,166.39,49.81Zm26.38-14.52c-2.62-.07-3.93-.09-6.54-.13-.11,7.25-.16,10.88-.26,18.13l-4.19,0c.06-7.25.08-10.88.14-18.14-2.55,0-3.82,0-6.37,0V31.75c6.93,0,10.39,0,17.31.2C192.82,33.28,192.8,34,192.77,35.29Zm21.34,19.06c-.64-2.16-1-3.23-1.62-5.39-3.25-.19-4.88-.27-8.13-.41-.87,2.08-1.3,3.12-2.16,5.2l-4.36-.16c3.62-8.47,5.48-12.7,9.33-21.11l4.33.22c2.92,8.76,4.33,13.15,7,21.95ZM244.73,42a6,6,0,0,1-.65,2.23,6.54,6.54,0,0,1-1.21,1.62,6.26,6.26,0,0,1-1.52,1.09,9.93,9.93,0,0,1-1.57.64c1.85,3.74,2.76,5.61,4.54,9.36l-4.75-.51c-1.46-3.4-2.21-5.1-3.72-8.49L233,47.68l-.73,8-4.08-.36c.72-8.56,1.08-12.84,1.8-21.4,3.22.27,4.83.42,8,.73a9.23,9.23,0,0,1,3.17.83,6.67,6.67,0,0,1,2.17,1.63,5.76,5.76,0,0,1,1.19,2.22A6.9,6.9,0,0,1,244.73,42Zm27.36,18.66L267,59.87c-2.19-4.12-3.3-6.17-5.58-10.27l-2.05,1.65-1,7.4-4.17-.54c1.09-8.52,1.62-12.78,2.71-21.31l4.31.56-1.23,9.19c3.72-3.24,5.61-4.85,9.42-8l5.36.81c-4,3.18-6,4.79-9.93,8C267.79,52.67,269.25,55.33,272.09,60.66Zm26.39-13.81c-3.88-.76-5.82-1.13-9.7-1.83l-1,5.33c3.49.63,5.24,1,8.72,1.64l-.62,3.18c-3.47-.68-5.2-1-8.68-1.63l-1.11,6.17c3.83.69,5.75,1.05,9.58,1.8l-.63,3.21c-5.46-1.07-8.19-1.58-13.67-2.53,1.47-8.46,2.19-12.7,3.67-21.16,5.63,1,8.44,1.49,14,2.6ZM324,52.49c-2.56-.62-3.84-.92-6.41-1.5-1.62,7.07-2.42,10.61-4,17.68l-4.11-.93C311,60.66,311.83,57.12,313.4,50c-2.5-.55-3.75-.83-6.26-1.35l.69-3.27c6.81,1.44,10.21,2.21,17,3.83Z"/></g></g></svg>